<mxfile host="Electron" agent="Mozilla/5.0 (Windows NT 10.0; Win64; x64) AppleWebKit/537.36 (KHTML, like Gecko) draw.io/24.7.8 Chrome/128.0.6613.36 Electron/32.0.1 Safari/537.36" version="24.7.8">
  <diagram name="Page-1" id="UI9hSoGJG68KM8i0-efs">
    <mxGraphModel dx="1357" dy="914" grid="1" gridSize="10" guides="1" tooltips="1" connect="1" arrows="1" fold="1" page="1" pageScale="1" pageWidth="827" pageHeight="1169" math="0" shadow="0">
      <root>
        <mxCell id="0" />
        <mxCell id="1" parent="0" />
        <mxCell id="78TbH2gb1BlGe4ghfX7H-14" value="" style="rounded=1;whiteSpace=wrap;html=1;" vertex="1" parent="1">
          <mxGeometry x="120" y="170" width="80" height="120" as="geometry" />
        </mxCell>
        <mxCell id="78TbH2gb1BlGe4ghfX7H-15" value="D" style="text;html=1;align=center;verticalAlign=middle;resizable=0;points=[];autosize=1;strokeColor=none;fillColor=none;" vertex="1" parent="1">
          <mxGeometry x="112.5" y="186" width="30" height="30" as="geometry" />
        </mxCell>
        <mxCell id="78TbH2gb1BlGe4ghfX7H-52" style="edgeStyle=orthogonalEdgeStyle;rounded=0;orthogonalLoop=1;jettySize=auto;html=1;exitX=0;exitY=0.25;exitDx=0;exitDy=0;endArrow=none;endFill=0;" edge="1" parent="1" source="78TbH2gb1BlGe4ghfX7H-14">
          <mxGeometry relative="1" as="geometry">
            <mxPoint x="80" y="200.33333333333337" as="targetPoint" />
          </mxGeometry>
        </mxCell>
        <mxCell id="78TbH2gb1BlGe4ghfX7H-51" style="edgeStyle=orthogonalEdgeStyle;rounded=0;orthogonalLoop=1;jettySize=auto;html=1;exitX=1;exitY=0.25;exitDx=0;exitDy=0;endArrow=none;endFill=0;" edge="1" parent="1" source="78TbH2gb1BlGe4ghfX7H-14">
          <mxGeometry relative="1" as="geometry">
            <mxPoint x="1030.1017563215648" y="200" as="targetPoint" />
          </mxGeometry>
        </mxCell>
        <mxCell id="78TbH2gb1BlGe4ghfX7H-17" value="Q" style="text;html=1;align=center;verticalAlign=middle;resizable=0;points=[];autosize=1;strokeColor=none;fillColor=none;" vertex="1" parent="1">
          <mxGeometry x="174" y="186" width="30" height="30" as="geometry" />
        </mxCell>
        <mxCell id="78TbH2gb1BlGe4ghfX7H-20" value="" style="group" vertex="1" connectable="0" parent="1">
          <mxGeometry x="220" y="170" width="91.5" height="120" as="geometry" />
        </mxCell>
        <mxCell id="78TbH2gb1BlGe4ghfX7H-21" value="" style="rounded=1;whiteSpace=wrap;html=1;" vertex="1" parent="78TbH2gb1BlGe4ghfX7H-20">
          <mxGeometry x="7.5" width="80" height="120" as="geometry" />
        </mxCell>
        <mxCell id="78TbH2gb1BlGe4ghfX7H-22" value="D" style="text;html=1;align=center;verticalAlign=middle;resizable=0;points=[];autosize=1;strokeColor=none;fillColor=none;" vertex="1" parent="78TbH2gb1BlGe4ghfX7H-20">
          <mxGeometry y="16" width="30" height="30" as="geometry" />
        </mxCell>
        <mxCell id="78TbH2gb1BlGe4ghfX7H-23" value="Q" style="text;html=1;align=center;verticalAlign=middle;resizable=0;points=[];autosize=1;strokeColor=none;fillColor=none;" vertex="1" parent="78TbH2gb1BlGe4ghfX7H-20">
          <mxGeometry x="61.5" y="16" width="30" height="30" as="geometry" />
        </mxCell>
        <mxCell id="78TbH2gb1BlGe4ghfX7H-82" style="edgeStyle=orthogonalEdgeStyle;rounded=0;orthogonalLoop=1;jettySize=auto;html=1;exitX=0;exitY=0.5;exitDx=0;exitDy=0;endArrow=none;endFill=0;" edge="1" parent="78TbH2gb1BlGe4ghfX7H-20" source="78TbH2gb1BlGe4ghfX7H-24">
          <mxGeometry relative="1" as="geometry">
            <mxPoint x="-12.138360941185113" y="131.28929282134436" as="targetPoint" />
          </mxGeometry>
        </mxCell>
        <mxCell id="78TbH2gb1BlGe4ghfX7H-24" value="" style="triangle;whiteSpace=wrap;html=1;" vertex="1" parent="78TbH2gb1BlGe4ghfX7H-20">
          <mxGeometry x="7.5" y="79" width="15" height="20" as="geometry" />
        </mxCell>
        <mxCell id="78TbH2gb1BlGe4ghfX7H-25" value="" style="group" vertex="1" connectable="0" parent="1">
          <mxGeometry x="330" y="170" width="91.5" height="120" as="geometry" />
        </mxCell>
        <mxCell id="78TbH2gb1BlGe4ghfX7H-26" value="" style="rounded=1;whiteSpace=wrap;html=1;" vertex="1" parent="78TbH2gb1BlGe4ghfX7H-25">
          <mxGeometry x="7.5" width="80" height="120" as="geometry" />
        </mxCell>
        <mxCell id="78TbH2gb1BlGe4ghfX7H-27" value="D" style="text;html=1;align=center;verticalAlign=middle;resizable=0;points=[];autosize=1;strokeColor=none;fillColor=none;" vertex="1" parent="78TbH2gb1BlGe4ghfX7H-25">
          <mxGeometry y="16" width="30" height="30" as="geometry" />
        </mxCell>
        <mxCell id="78TbH2gb1BlGe4ghfX7H-28" value="Q" style="text;html=1;align=center;verticalAlign=middle;resizable=0;points=[];autosize=1;strokeColor=none;fillColor=none;" vertex="1" parent="78TbH2gb1BlGe4ghfX7H-25">
          <mxGeometry x="61.5" y="16" width="30" height="30" as="geometry" />
        </mxCell>
        <mxCell id="78TbH2gb1BlGe4ghfX7H-80" style="edgeStyle=orthogonalEdgeStyle;rounded=0;orthogonalLoop=1;jettySize=auto;html=1;exitX=0;exitY=0.5;exitDx=0;exitDy=0;endArrow=none;endFill=0;" edge="1" parent="78TbH2gb1BlGe4ghfX7H-25" source="78TbH2gb1BlGe4ghfX7H-29">
          <mxGeometry relative="1" as="geometry">
            <mxPoint x="-12.452807156544736" y="131.16353736733492" as="targetPoint" />
          </mxGeometry>
        </mxCell>
        <mxCell id="78TbH2gb1BlGe4ghfX7H-29" value="" style="triangle;whiteSpace=wrap;html=1;" vertex="1" parent="78TbH2gb1BlGe4ghfX7H-25">
          <mxGeometry x="7.5" y="79" width="15" height="20" as="geometry" />
        </mxCell>
        <mxCell id="78TbH2gb1BlGe4ghfX7H-30" value="" style="group" vertex="1" connectable="0" parent="1">
          <mxGeometry x="440" y="170" width="91.5" height="120" as="geometry" />
        </mxCell>
        <mxCell id="78TbH2gb1BlGe4ghfX7H-31" value="" style="rounded=1;whiteSpace=wrap;html=1;" vertex="1" parent="78TbH2gb1BlGe4ghfX7H-30">
          <mxGeometry x="7.5" width="80" height="120" as="geometry" />
        </mxCell>
        <mxCell id="78TbH2gb1BlGe4ghfX7H-32" value="D" style="text;html=1;align=center;verticalAlign=middle;resizable=0;points=[];autosize=1;strokeColor=none;fillColor=none;" vertex="1" parent="78TbH2gb1BlGe4ghfX7H-30">
          <mxGeometry y="16" width="30" height="30" as="geometry" />
        </mxCell>
        <mxCell id="78TbH2gb1BlGe4ghfX7H-33" value="Q" style="text;html=1;align=center;verticalAlign=middle;resizable=0;points=[];autosize=1;strokeColor=none;fillColor=none;" vertex="1" parent="78TbH2gb1BlGe4ghfX7H-30">
          <mxGeometry x="61.5" y="16" width="30" height="30" as="geometry" />
        </mxCell>
        <mxCell id="78TbH2gb1BlGe4ghfX7H-81" style="edgeStyle=orthogonalEdgeStyle;rounded=0;orthogonalLoop=1;jettySize=auto;html=1;exitX=0;exitY=0.5;exitDx=0;exitDy=0;endArrow=none;endFill=0;" edge="1" parent="78TbH2gb1BlGe4ghfX7H-30" source="78TbH2gb1BlGe4ghfX7H-34">
          <mxGeometry relative="1" as="geometry">
            <mxPoint x="-12.264127911261767" y="131.41511161372347" as="targetPoint" />
          </mxGeometry>
        </mxCell>
        <mxCell id="78TbH2gb1BlGe4ghfX7H-34" value="" style="triangle;whiteSpace=wrap;html=1;" vertex="1" parent="78TbH2gb1BlGe4ghfX7H-30">
          <mxGeometry x="7.5" y="79" width="15" height="20" as="geometry" />
        </mxCell>
        <mxCell id="78TbH2gb1BlGe4ghfX7H-35" value="" style="group" vertex="1" connectable="0" parent="1">
          <mxGeometry x="550" y="170" width="91.5" height="120" as="geometry" />
        </mxCell>
        <mxCell id="78TbH2gb1BlGe4ghfX7H-36" value="" style="rounded=1;whiteSpace=wrap;html=1;" vertex="1" parent="78TbH2gb1BlGe4ghfX7H-35">
          <mxGeometry x="7.5" width="80" height="120" as="geometry" />
        </mxCell>
        <mxCell id="78TbH2gb1BlGe4ghfX7H-37" value="D" style="text;html=1;align=center;verticalAlign=middle;resizable=0;points=[];autosize=1;strokeColor=none;fillColor=none;" vertex="1" parent="78TbH2gb1BlGe4ghfX7H-35">
          <mxGeometry y="16" width="30" height="30" as="geometry" />
        </mxCell>
        <mxCell id="78TbH2gb1BlGe4ghfX7H-38" value="Q" style="text;html=1;align=center;verticalAlign=middle;resizable=0;points=[];autosize=1;strokeColor=none;fillColor=none;" vertex="1" parent="78TbH2gb1BlGe4ghfX7H-35">
          <mxGeometry x="61.5" y="16" width="30" height="30" as="geometry" />
        </mxCell>
        <mxCell id="78TbH2gb1BlGe4ghfX7H-77" style="edgeStyle=orthogonalEdgeStyle;rounded=0;orthogonalLoop=1;jettySize=auto;html=1;exitX=0;exitY=0.5;exitDx=0;exitDy=0;endArrow=none;endFill=0;" edge="1" parent="78TbH2gb1BlGe4ghfX7H-35" source="78TbH2gb1BlGe4ghfX7H-39">
          <mxGeometry relative="1" as="geometry">
            <mxPoint x="-12.385922080592081" y="130" as="targetPoint" />
          </mxGeometry>
        </mxCell>
        <mxCell id="78TbH2gb1BlGe4ghfX7H-39" value="" style="triangle;whiteSpace=wrap;html=1;" vertex="1" parent="78TbH2gb1BlGe4ghfX7H-35">
          <mxGeometry x="7.5" y="79" width="15" height="20" as="geometry" />
        </mxCell>
        <mxCell id="78TbH2gb1BlGe4ghfX7H-40" value="" style="group" vertex="1" connectable="0" parent="1">
          <mxGeometry x="660" y="170" width="91.5" height="120" as="geometry" />
        </mxCell>
        <mxCell id="78TbH2gb1BlGe4ghfX7H-41" value="" style="rounded=1;whiteSpace=wrap;html=1;" vertex="1" parent="78TbH2gb1BlGe4ghfX7H-40">
          <mxGeometry x="7.5" width="80" height="120" as="geometry" />
        </mxCell>
        <mxCell id="78TbH2gb1BlGe4ghfX7H-42" value="D" style="text;html=1;align=center;verticalAlign=middle;resizable=0;points=[];autosize=1;strokeColor=none;fillColor=none;" vertex="1" parent="78TbH2gb1BlGe4ghfX7H-40">
          <mxGeometry y="16" width="30" height="30" as="geometry" />
        </mxCell>
        <mxCell id="78TbH2gb1BlGe4ghfX7H-43" value="Q" style="text;html=1;align=center;verticalAlign=middle;resizable=0;points=[];autosize=1;strokeColor=none;fillColor=none;" vertex="1" parent="78TbH2gb1BlGe4ghfX7H-40">
          <mxGeometry x="62.5" y="16" width="30" height="30" as="geometry" />
        </mxCell>
        <mxCell id="78TbH2gb1BlGe4ghfX7H-72" style="edgeStyle=orthogonalEdgeStyle;rounded=0;orthogonalLoop=1;jettySize=auto;html=1;exitX=0;exitY=0.5;exitDx=0;exitDy=0;endArrow=none;endFill=0;" edge="1" parent="78TbH2gb1BlGe4ghfX7H-40" source="78TbH2gb1BlGe4ghfX7H-44">
          <mxGeometry relative="1" as="geometry">
            <mxPoint x="-12.44447299890362" y="130.35671086896923" as="targetPoint" />
          </mxGeometry>
        </mxCell>
        <mxCell id="78TbH2gb1BlGe4ghfX7H-44" value="" style="triangle;whiteSpace=wrap;html=1;" vertex="1" parent="78TbH2gb1BlGe4ghfX7H-40">
          <mxGeometry x="7.5" y="79" width="15" height="20" as="geometry" />
        </mxCell>
        <mxCell id="78TbH2gb1BlGe4ghfX7H-45" value="" style="group" vertex="1" connectable="0" parent="1">
          <mxGeometry x="771" y="170" width="91.5" height="120" as="geometry" />
        </mxCell>
        <mxCell id="78TbH2gb1BlGe4ghfX7H-46" value="" style="rounded=1;whiteSpace=wrap;html=1;" vertex="1" parent="78TbH2gb1BlGe4ghfX7H-45">
          <mxGeometry x="7.5" width="80" height="120" as="geometry" />
        </mxCell>
        <mxCell id="78TbH2gb1BlGe4ghfX7H-47" value="D" style="text;html=1;align=center;verticalAlign=middle;resizable=0;points=[];autosize=1;strokeColor=none;fillColor=none;" vertex="1" parent="78TbH2gb1BlGe4ghfX7H-45">
          <mxGeometry y="16" width="30" height="30" as="geometry" />
        </mxCell>
        <mxCell id="78TbH2gb1BlGe4ghfX7H-48" value="Q" style="text;html=1;align=center;verticalAlign=middle;resizable=0;points=[];autosize=1;strokeColor=none;fillColor=none;" vertex="1" parent="78TbH2gb1BlGe4ghfX7H-45">
          <mxGeometry x="61.5" y="16" width="30" height="30" as="geometry" />
        </mxCell>
        <mxCell id="78TbH2gb1BlGe4ghfX7H-92" style="edgeStyle=orthogonalEdgeStyle;rounded=0;orthogonalLoop=1;jettySize=auto;html=1;exitX=0;exitY=0.5;exitDx=0;exitDy=0;endArrow=none;endFill=0;" edge="1" parent="78TbH2gb1BlGe4ghfX7H-45" source="78TbH2gb1BlGe4ghfX7H-49">
          <mxGeometry relative="1" as="geometry">
            <mxPoint x="-12.222222222222172" y="130.77777777777777" as="targetPoint" />
          </mxGeometry>
        </mxCell>
        <mxCell id="78TbH2gb1BlGe4ghfX7H-49" value="" style="triangle;whiteSpace=wrap;html=1;" vertex="1" parent="78TbH2gb1BlGe4ghfX7H-45">
          <mxGeometry x="7.5" y="79" width="15" height="20" as="geometry" />
        </mxCell>
        <mxCell id="78TbH2gb1BlGe4ghfX7H-84" style="edgeStyle=orthogonalEdgeStyle;rounded=0;orthogonalLoop=1;jettySize=auto;html=1;exitX=0;exitY=0.5;exitDx=0;exitDy=0;endArrow=none;endFill=0;" edge="1" parent="1" source="78TbH2gb1BlGe4ghfX7H-16">
          <mxGeometry relative="1" as="geometry">
            <mxPoint x="97.29558980689859" y="301.16350857716685" as="targetPoint" />
          </mxGeometry>
        </mxCell>
        <mxCell id="78TbH2gb1BlGe4ghfX7H-16" value="" style="triangle;whiteSpace=wrap;html=1;" vertex="1" parent="1">
          <mxGeometry x="120" y="249" width="15" height="20" as="geometry" />
        </mxCell>
        <mxCell id="78TbH2gb1BlGe4ghfX7H-57" style="edgeStyle=orthogonalEdgeStyle;rounded=0;orthogonalLoop=1;jettySize=auto;html=1;exitX=0;exitY=0.75;exitDx=0;exitDy=0;exitPerimeter=0;endArrow=none;endFill=0;" edge="1" parent="1" source="78TbH2gb1BlGe4ghfX7H-56">
          <mxGeometry relative="1" as="geometry">
            <mxPoint x="320" y="199.99999999999994" as="targetPoint" />
          </mxGeometry>
        </mxCell>
        <mxCell id="78TbH2gb1BlGe4ghfX7H-59" style="edgeStyle=orthogonalEdgeStyle;rounded=0;orthogonalLoop=1;jettySize=auto;html=1;exitX=0;exitY=0.25;exitDx=0;exitDy=0;exitPerimeter=0;endArrow=none;endFill=0;" edge="1" parent="1" source="78TbH2gb1BlGe4ghfX7H-56">
          <mxGeometry relative="1" as="geometry">
            <mxPoint x="213.83840849905312" y="199.3838445490057" as="targetPoint" />
          </mxGeometry>
        </mxCell>
        <mxCell id="78TbH2gb1BlGe4ghfX7H-56" value="" style="verticalLabelPosition=bottom;shadow=0;dashed=0;align=center;html=1;verticalAlign=top;shape=mxgraph.electrical.logic_gates.logic_gate;operation=xor;rotation=-180;" vertex="1" parent="1">
          <mxGeometry x="112.5" y="110" width="80" height="41" as="geometry" />
        </mxCell>
        <mxCell id="78TbH2gb1BlGe4ghfX7H-61" style="edgeStyle=orthogonalEdgeStyle;rounded=0;orthogonalLoop=1;jettySize=auto;html=1;exitX=0;exitY=0.75;exitDx=0;exitDy=0;exitPerimeter=0;endArrow=none;endFill=0;" edge="1" parent="1" source="78TbH2gb1BlGe4ghfX7H-60">
          <mxGeometry relative="1" as="geometry">
            <mxPoint x="880" y="200.0000000000001" as="targetPoint" />
            <Array as="points">
              <mxPoint x="1000" y="70" />
              <mxPoint x="1000" y="200" />
            </Array>
          </mxGeometry>
        </mxCell>
        <mxCell id="78TbH2gb1BlGe4ghfX7H-62" style="edgeStyle=orthogonalEdgeStyle;rounded=0;orthogonalLoop=1;jettySize=auto;html=1;exitX=0;exitY=0.25;exitDx=0;exitDy=0;exitPerimeter=0;endArrow=none;endFill=0;" edge="1" parent="1" source="78TbH2gb1BlGe4ghfX7H-60">
          <mxGeometry relative="1" as="geometry">
            <mxPoint x="430" y="200.0000000000001" as="targetPoint" />
          </mxGeometry>
        </mxCell>
        <mxCell id="78TbH2gb1BlGe4ghfX7H-60" value="" style="verticalLabelPosition=bottom;shadow=0;dashed=0;align=center;html=1;verticalAlign=top;shape=mxgraph.electrical.logic_gates.logic_gate;operation=xor;rotation=-180;" vertex="1" parent="1">
          <mxGeometry x="112.5" y="60" width="80" height="41" as="geometry" />
        </mxCell>
        <mxCell id="78TbH2gb1BlGe4ghfX7H-65" style="edgeStyle=orthogonalEdgeStyle;rounded=0;orthogonalLoop=1;jettySize=auto;html=1;exitX=0;exitY=0.75;exitDx=0;exitDy=0;exitPerimeter=0;endArrow=none;endFill=0;" edge="1" parent="1" source="78TbH2gb1BlGe4ghfX7H-63">
          <mxGeometry relative="1" as="geometry">
            <mxPoint x="112.37681159420288" y="79.99999999999994" as="targetPoint" />
          </mxGeometry>
        </mxCell>
        <mxCell id="78TbH2gb1BlGe4ghfX7H-66" style="edgeStyle=orthogonalEdgeStyle;rounded=0;orthogonalLoop=1;jettySize=auto;html=1;exitX=1;exitY=0.5;exitDx=0;exitDy=0;exitPerimeter=0;endArrow=none;endFill=0;" edge="1" parent="1" source="78TbH2gb1BlGe4ghfX7H-63">
          <mxGeometry relative="1" as="geometry">
            <mxPoint x="80.00000000000011" y="200" as="targetPoint" />
            <Array as="points">
              <mxPoint x="30" y="106" />
              <mxPoint x="30" y="200" />
            </Array>
          </mxGeometry>
        </mxCell>
        <mxCell id="78TbH2gb1BlGe4ghfX7H-63" value="" style="verticalLabelPosition=bottom;shadow=0;dashed=0;align=center;html=1;verticalAlign=top;shape=mxgraph.electrical.logic_gates.logic_gate;operation=xor;rotation=-180;" vertex="1" parent="1">
          <mxGeometry x="32.5" y="85" width="80" height="41" as="geometry" />
        </mxCell>
        <mxCell id="78TbH2gb1BlGe4ghfX7H-64" style="edgeStyle=orthogonalEdgeStyle;rounded=0;orthogonalLoop=1;jettySize=auto;html=1;exitX=0;exitY=0.25;exitDx=0;exitDy=0;exitPerimeter=0;entryX=1;entryY=0.5;entryDx=0;entryDy=0;entryPerimeter=0;endArrow=none;endFill=0;" edge="1" parent="1" source="78TbH2gb1BlGe4ghfX7H-63" target="78TbH2gb1BlGe4ghfX7H-56">
          <mxGeometry relative="1" as="geometry" />
        </mxCell>
        <mxCell id="78TbH2gb1BlGe4ghfX7H-67" value="scan_in" style="text;html=1;align=center;verticalAlign=middle;resizable=0;points=[];autosize=1;strokeColor=none;fillColor=none;" vertex="1" parent="1">
          <mxGeometry x="1030" y="186" width="60" height="30" as="geometry" />
        </mxCell>
        <mxCell id="78TbH2gb1BlGe4ghfX7H-69" value="" style="endArrow=none;html=1;rounded=0;edgeStyle=orthogonalEdgeStyle;entryX=0;entryY=0.5;entryDx=0;entryDy=0;" edge="1" parent="1" target="78TbH2gb1BlGe4ghfX7H-90">
          <mxGeometry width="50" height="50" relative="1" as="geometry">
            <mxPoint x="40" y="300" as="sourcePoint" />
            <mxPoint x="770.9302325581396" y="300" as="targetPoint" />
            <Array as="points">
              <mxPoint x="40" y="301" />
              <mxPoint x="870" y="301" />
              <mxPoint x="870" y="259" />
            </Array>
          </mxGeometry>
        </mxCell>
        <mxCell id="78TbH2gb1BlGe4ghfX7H-85" value="clk" style="text;html=1;align=center;verticalAlign=middle;resizable=0;points=[];autosize=1;strokeColor=none;fillColor=none;" vertex="1" parent="1">
          <mxGeometry x="7" y="286" width="40" height="30" as="geometry" />
        </mxCell>
        <mxCell id="78TbH2gb1BlGe4ghfX7H-86" value="" style="group" vertex="1" connectable="0" parent="1">
          <mxGeometry x="880" y="170" width="91.5" height="120" as="geometry" />
        </mxCell>
        <mxCell id="78TbH2gb1BlGe4ghfX7H-87" value="" style="rounded=1;whiteSpace=wrap;html=1;" vertex="1" parent="78TbH2gb1BlGe4ghfX7H-86">
          <mxGeometry x="7.5" width="80" height="120" as="geometry" />
        </mxCell>
        <mxCell id="78TbH2gb1BlGe4ghfX7H-88" value="D" style="text;html=1;align=center;verticalAlign=middle;resizable=0;points=[];autosize=1;strokeColor=none;fillColor=none;" vertex="1" parent="78TbH2gb1BlGe4ghfX7H-86">
          <mxGeometry y="16" width="30" height="30" as="geometry" />
        </mxCell>
        <mxCell id="78TbH2gb1BlGe4ghfX7H-89" value="Q" style="text;html=1;align=center;verticalAlign=middle;resizable=0;points=[];autosize=1;strokeColor=none;fillColor=none;" vertex="1" parent="78TbH2gb1BlGe4ghfX7H-86">
          <mxGeometry x="61.5" y="16" width="30" height="30" as="geometry" />
        </mxCell>
        <mxCell id="78TbH2gb1BlGe4ghfX7H-90" value="" style="triangle;whiteSpace=wrap;html=1;" vertex="1" parent="78TbH2gb1BlGe4ghfX7H-86">
          <mxGeometry x="7.5" y="79" width="15" height="20" as="geometry" />
        </mxCell>
      </root>
    </mxGraphModel>
  </diagram>
</mxfile>
